<svg xmlns="http://www.w3.org/2000/svg" xml:space="preserve" width="787.69153" height="300" viewBox="0 0 787.69152 300"><defs><clipPath id="a" clipPathUnits="userSpaceOnUse"><path d="M145.813 422.922c-.174-.035-.801-.14-.801-.14l-4.381-.853-1.599-.478-1.11-.343-4.209-.954s-.659-.41-.904-.41c-.243 0-.764.068-.87 0-.103-.069-.135-.238-.312-.375-.173-.136-.484-.343-.484-.343l-.801-.169-2.296-1.332-2.015-1.604-.662-.786-1.667-1.776-.973-.752s-.105-.204-.244-.272c-.138-.068-.662-.342-.662-.342l-.311-.582s-.314 0-.314-.272v-.682l-.068-.412c-1.069-1.441-2.221-2.908-3.041-4.505-.269-.53-.635-1.323-1.078-1.733-.352-.325-.956-.522-1.415-.723-.434-.193-.754-.233-1.074-.586-.187-.203-.213-.537-.342-.677-.221-.241-.499-.265-.739-.47-.151-.127-.32-.471-.464-.64-.361-.417-.778-.788-1.129-1.206-.719-.845-1.679-1.694-2.209-2.639-.848-1.5-1.233-3.212-1.722-4.848l-.451-1.878.142-.478-.209-1.364-.071-.789-.21-.887-.38-1.332-.314-.989-.346-.821s-.139-.683-.175-.886c-.036-.204-.036-.82-.036-.82l.036-.17.21-.24.102-.306.071-.991.521-2.458.623-2.187.595-1.504.52-1.705.348-.785.349-.682.345-.614.209-.583v-.512l.175-.171.103-.683.071-.579.173-.307.138.307.105.034.557-.717.139-.513.729-1.296.766-1.571.762-1.025.386-.373.451-.309.104-.513.66-.546.245-.446.521-.578.486-.548.244-.238c.403-.395.541-.98.872-1.435.161-.219.496-.42.626-.574.474.334 1.02-.569 1.257-.886.357-.488.804-.848 1.237-1.259.402-.386.921-.928 1.382-1.198.497-.289 1.265-.449 1.769-.668.876-.378 1.758-.554 2.624-.978h.94l.346.03.211.038.102-.038.209.103.209.206.346.066.07-.134-.07-.271.314-.071.766.035.207.169.422.272.309.141.384.237.101.24.246.204.38-.173.245.24.139.137.312-.034c.144-.015.455-.361.603-.427.412.443 1.063.66 1.663.523.406-.097.603-.234 1.012-.207.378.024.708.354 1.035.011.134.057.332.081.449.169l-.023.112c.124.023.349-.026.475-.075.009-.205.136-.261.174-.412.453.561.958.715 1.668.68a.81.81 0 0 1 .036-.199c.057.261.15.219.278.371.141-.342.525-.363.854-.243.44.161.303.44.565.666.316.271.511.2.725.127.215-.071.45-.143.845.134-.009-.008.221-.487.246-.542.081.04.161.088.241.133l.07.135.209.24.347.275v-.684l.139-.103.313.067.244.343.174.272.277.171.314.206.068.101.28.17.138.104.382.069.939.068.488.271.035.172.102.615.521.478h.525l.277.34.277.307.348.309.417.104.139-.445.174.308.069.341.487.342.315.17.415.308.523.1-.036.239v.241l.869-.308.41.233c2.45 1.407 5.35 1.639 7.946 2.675.97.385 2.062.339 3.058.628 1.137.331 2.209.847 3.359 1.135 1.12.285 2.162 1.094 3.267 1.507.893.331 2.221.752 2.438 1.812l.069.342.103.102s.138-.102.104 0c-.034.104-.207.478-.207.478v.41l.103.204.104.172-.382.067-.071.205-.207-.034-.139-.376.035-.238.139-.273.07-.615-.209-.24-.035-.274-.21.103-.172.274-.068.241.174.202.066.342v.718l.071.411.036.544.172.138.105.138-.105.168-.241.274-.07.136-.208-.1-.141-.616.035-.614-.071-.753-.173-.716-.277-.41-.243-.307-.171-.139-.143-.201-.276-.139h-.28l-.105.103-.036.203.593.241.07.478v.581l-.242.444-.315-.444-.173-.514-.312-.306-.348-.239-.14-.138-.171.309.103.478s.208.135.241.272c.037.138.175.478.175.478l.381.273.174.276.175.033.244.307-.174.341.14.274.487.205.415.169.381.24.943.512.762.408s.243.208.279.31c.033.103.173.376.173.376l-.104.477.104.272.244.546.347.411v-.306l.277.169.208.377.384.273s.349-.206.174.204c-.174.41-.349.787-.349.787l-.139.236.106.618-.277.34.277.58.138.309.173.375.106.306c.272.8-.261 1.577-.252 2.371-.006.04.398.34.423.51.036.231-.258.485-.23.745.062.547.446.673.163 1.224l-.383 2.525-.836 1.743-.556 2.526s-.45 1.025-.45 1.127c0 .102-.104 1.126-.104 1.126l-.14.649-.242.887-.211.137-.173-.341-.069-.648-.381-.512s-.034 0-.106.237c-.071.24-.172.821-.172.821l-.28.786.071.683.209.305-.14.208-.246.065-.45-.34s-.036-.444-.036-.614c0-.171.036-.718.036-.718l-.451.171h-.14l-.103-.274.52-.784.138-.341-.1-.377v-.341l.001-.376-.109-.579-.38-.207-.278-.135s-.079.157-.164.318c.006-.045.009-.082-.001-.095a3.67 3.67 0 0 1-.122-.222v-.223l.122-.342-.242-.222s-.056-.169-.158-.034a7.538 7.538 0 0 1-.295.343l-.262.084-.348.207-.052.271.383.017.313-.017a.5.5 0 0 0 .174.103c.07.067.276.206.276.206l.072.187.005.002c-.025.051-.042.088-.048.097-.489.958-.954 3.142-.513 4.13-.246-.105-.401-.335-.533-.577-.486.184-1.052 1.141-.339 1.355-.114.378-.438.81-.84.9-.048.009-.125 1.043-.142 1.194l-.243.375-.381.07-.035.305-.138.241h-.14l-.209-.171v-.239h-.243l-.383.135.207.275.105.171s0 .17-.071.273c-.067.101-.344.34-.344.34l-.105.206.07.273.103-.102.276-.239.244-.24v.545c0 .14.176.413 0 .65-.173.239-.278.34-.278.34l-.52.548-.522.444s-.174.206-.174.306c0 .104-.034.276-.034.412 0 .137-.035.308-.035.308l-.173.237.628.102.415.137.313-.068s.311-.139.242.035l-.069.171-.138.238-.523.172-.24.135-.212.138-.208.101-.553-.068-.108-.067-.136-.104-.035.171v.17l-.107.241-.14.103.348.168h.281l.242.241.173.306v.138l.243.272s.034.307-.138.273c-.174-.032-.453-.032-.453-.032l-.485-.14h-.35l-.033.24s.172.238.172.341c0 .104-.104.412-.104.412l-.104.067-.138.476-.138.207-.454-.136-.067.683-.315.307-.416.272-.035.617c-.118.168-.137.16-.22.151a.557.557 0 0 0-.151.003c-.04.005-.071-.057-.112-.119-.04-.064-.091-.128-.165-.117-.103.013-.163.141-.261.166-.399.095-.781.726-1.247.633-.199.922-.692 1.733-1.212 2.512-.368.552-.761 1.436-1.223 1.892l-.416.343-.173.339-.14.411s-.314.919-.383 1.024c-.067.101-.171.377-.311.442-.14.071-.419.411-.419.411l-.242.513-.451.205-.523.306-.625.173-.418-.036s-.139-.137-.067-.307c.067-.172.346-.48.346-.48l.241-.1-.278-.41s-.104-.035-.104-.172c0-.135.177-.444.177-.444.066.206.136.341.136.341l.177.207s.242.033.345.033c.105 0 .381-.103.381-.103v-.238s.108-.341 0-.341c-.101 0-.59-.105-.59-.105s-.173-.204-.276-.204c-.107 0-.312 0-.454.071-.138.067-.484.067-.484.067s-.037.101-.176-.067c-.138-.173-.138-.275-.138-.275l-.105-.102s-.175-.068-.279-.068c-.706-.003-.61 1.032-.744 1.486-.155.525-.598 1.998-1.096 2.268.232.449.322.934.001 1.364-.52-.37-.604.092-1.114.209l-.452.102-.208.101-.313.172-.177-.102-.276-.308-.382-.035h-.174l-.662-.034-.241.307.033.345s.069.169-.068.169c-.142 0-.871-.139-1.043-.169m2.195-28.771c.524-.059.994-.337 1.538-.305.431.026.879-.209 1.22-.514.097-.082.16-.198.259-.272.29-.224.537-.448.8-.719a1.07 1.07 0 0 1 .363-.264c.178-.08.346-.203.523-.284.317-.142.655-.127.958-.334.188-.128.336-.325.518-.462.144-.106.212-.245.375-.277.044-.01.09-.003.137.004.048.007.097.016.141.006.102-.026.224-.131.319-.188.311-.19.594-.495.842-.779.134-.153.27-.224.414-.358.108-.099.114-.227.18-.353.081-.155.19-.164.279-.301.064-.095.025-.209.105-.296.047-.056.153-.092.21-.147l.163-.209c.07-.103.012-.166.08-.267.08-.114.103-.081.168-.227a.757.757 0 0 0 .069-.315c.017-.342-.036-.448.18-.7.259-.301.334-.666.478-1.039.076-.196.153-.437.164-.655.011-.298.078-.281.203-.515.168-.311.067-.899.066-1.256 0-.095.011-.207.012-.317l-.001-.07a.738.738 0 0 0-.028-.214c-.011-.037-.08-.134-.117-.197-.025-.082-.032-.145-.046-.245-.022-.126-.073-.187-.097-.303-.032-.152.004-.21-.061-.347-.036-.03-.066-.063-.098-.095a.35.35 0 0 1-.016-.193c-.076-.208-.145-.392-.185-.622-.035-.203-.116-.457-.247-.625-.069-.092-.152-.104-.236-.174-.118-.099-.16-.225-.225-.371-.115-.259-.243-.439-.471-.569-.086-.085-.179-.164-.255-.263a2.258 2.258 0 0 1-.299-.489c-.194-.438-.614-.672-1.005-.812-.117-.043-.244-.11-.365-.135a.635.635 0 0 0-.182-.009.592.592 0 0 1-.23-.023 14.137 14.137 0 0 0-.587-.303 6.839 6.839 0 0 0-.72-.268c-.188-.076-.203-.117-.334-.277-.114-.136-.223-.243-.389-.268a2.041 2.041 0 0 1-.338-.069c-.262-.077-.478-.224-.701-.388-.143-.104-.301-.172-.441-.285-.179-.146-.193-.151-.407-.183-.416-.061-.949-.069-1.338-.286-.338-.19-.573-.587-.905-.791-.114-.069-.232-.068-.348-.066-.136.001-.267.003-.383-.102-.106-.1-.197-.266-.299-.373a1.708 1.708 0 0 0-.32-.275c-.244-.172-.511-.325-.686-.561-.058-.076-.098-.173-.172-.231-.195-.154-.444-.15-.644-.309-.163-.131-.374-.195-.526-.333a.56.56 0 0 0-.132-.196 2.108 2.108 0 0 1-.207-.042c-.142-.054-.215-.173-.32-.265-.126-.114-.55-.386-.706-.337a4.404 4.404 0 0 1-.803-.207c-.154-.058-.302-.076-.458-.128-.082-.028-.207-.136-.292-.184-.133-.079-.216-.084-.366-.127-.27-.077-.642-.282-.913-.112-.139.087-.201.187-.341.264-.138.075-.219.08-.387.078-.108-.001-.22.006-.334.012-.252.013-.51.028-.735-.034-.193-.054-.291-.094-.433-.236-.139-.136-.33-.297-.507-.345-.199-.054-.41-.037-.619-.02a2.24 2.24 0 0 1-.504.005c-.197-.029-.317-.113-.519-.109-.279.005-.523-.094-.8-.111-.329-.019-.666.006-.995.006-.298 0-.684-.094-.964-.007-.216.064-.248.331-.409.483-.145.135-.295.122-.445.11-.11-.009-.221-.017-.329.033-.048-.03-.084-.022-.104.028l-.085.151c-.401.3-.824.555-1.267.762-.349.19-.511.241-.692.593-.047.15-.109.289-.192.415-.221.283-.445.499-.619.836-.117.218-.262.344-.374.549a.603.603 0 0 1-.094.196c-.165.259-.452.349-.635.565-.126.148-.197.493-.21.698-.011.172.027.345-.014.515-.065.275-.302.466-.358.738-.07.355.085.62.167.933.048.174.109.338.118.52.009.227.008.326.089.521l.101-.048c.008.135.024.265.06.388.059.213.115.37.114.597-.004.195-.018.405.021.593.053.278.064.546.227.785.173.249.33.497.484.793.028.056.141.186.162.246.032.091.009.18.033.278.045.186.148.41.216.585.029.081.099.376.15.449.052.076.183.09.25.134.23.154.35.439.531.644.113.131.251.186.368.3.108.107.178.287.277.408.119.147.263.258.385.4.157.183.255.465.362.683.113.229.259.437.392.652.216.355.384.599.733.795.263.145.565.262.726.552a4.2 4.2 0 0 0 .343.523c.119.162.201.299.338.443.12.123.266.271.367.413.092.129.046.166.204.215.125.042.146.025.274.1.168.1.333.183.501.285.076.044.148.119.227.159.066.037.203.048.257.099.134.125.134.313.203.474.073.175.134.224.269.333.133.101.118.086.209.262.065.126.138.29.226.397.142.175.291.222.472.279.154.046.333.042.477.131.058.039.124.122.172.153.551.343 1.262.382 1.862.521.177.041.43.043.589.154.123.085.223.237.357.324.148.091.342.154.459.302.097.126.031.205.198.272.083.035.168.018.255.041.066.018.107.071.197.083a.996.996 0 0 0 .164.009c.06 0 .119 0 .179.013.477.092.927.378 1.415.403.052.002.106-.003.159-.007a.638.638 0 0 1 .285.017c.129.05.187.155.324.193.291.079.569-.094.849-.108.509-.024 1.028-.002 1.537-.002.092 0 .201-.012.309-.012.18 0 .358.033.457.213m22.184-5.648-.104.084s-.105.222-.156.409a.844.844 0 0 1-.139.291s-.088.34-.121.443c-.037.101-.02.478-.02.478s.107-.307.141-.377c.033-.066.242-.238.349-.339.102-.106.258-.342.343-.445.087-.102.069-.238.069-.238l-.013-.462zm.243-16.511.035.359s.174.118.223.136c.055.017.229.205.229.205l.243.204.433.086.49.46v-.049s-.122-.243-.139-.309a1.522 1.522 0 0 1-.054-.291c0-.066-.244-.171-.244-.171s-.175-.252-.188-.306c-.02-.051-.02-.051-.02-.103 0-.05-.346-.086-.434-.102-.087-.017-.28-.155-.28-.155l-.346-.187zm-1.409.188c.106.118.227.204.227.204l.297.019-.124-.532-.123-.169.089-.274-.347-.325s-.278-.323-.348-.342a4.901 4.901 0 0 1-.33-.118l-.278-.377-.034-.288-.157-.598s-.175.254-.14.357c.034.104.103.291.103.43 0 .134-.05.422-.069.508-.017.086-.086.481-.086.481l.103.254s.28.189.331.24c.051.052.139.103.173.172.037.066.09.17.09.17l.086.204.106.138h.172l.21-.121s-.028-.08-.005-.08c.009 0 .025.012.054.047m-3.286-1.844.472.206.329.152c.07.035.485.103.485.103l.279.238.158-.308-.244-.254s-.21-.036-.259-.036c-.054 0-.3-.085-.349-.101-.051-.017-.261-.204-.261-.204zm.942-1.467-.036.202.226.361-.018.153-.122.172h.244l.193.152.153.17.141.171.051-.187v-.222l-.104-.207-.105-.133-.12-.242v-.237c0-.086-.193-.17-.225-.224-.037-.051-.212-.136-.212-.136z"/></clipPath><clipPath id="c" clipPathUnits="userSpaceOnUse"><path d="m170.649 391.611.135-.265c-.018.118-.072.296-.072.296z"/></clipPath><clipPath id="e" clipPathUnits="userSpaceOnUse"><path d="M0 595.28h411.02V0H0Z"/></clipPath><linearGradient id="b" x1="0" x2="1" y1="0" y2="0" gradientTransform="matrix(70.74518 0 0 70.74518 105.676 387.494)" gradientUnits="userSpaceOnUse" spreadMethod="pad"><stop offset="0" style="stop-opacity:1;stop-color:#0087c9"/><stop offset="0.00101896" style="stop-opacity:1;stop-color:#0087c9"/><stop offset="1" style="stop-opacity:1;stop-color:#0056a3"/></linearGradient><linearGradient id="d" x1="0" x2="1" y1="0" y2="0" gradientTransform="matrix(.13454 0 0 .13454 170.454 391.494)" gradientUnits="userSpaceOnUse" spreadMethod="pad"><stop offset="0" style="stop-opacity:1;stop-color:#0087c8"/><stop offset="0.00101896" style="stop-opacity:1;stop-color:#0087c8"/><stop offset="1" style="stop-opacity:1;stop-color:#0057a3"/></linearGradient></defs><path d="M250.745 357.895h.923v-5.271h-.923z" style="fill:#0073bd;fill-opacity:1;fill-rule:nonzero;stroke:none" transform="matrix(3.82915 0 0 -3.82915 -405.38 1620.078)"/><path d="M0 0c0-.813.598-1.13 1.332-1.13.811 0 1.116.401 1.116.797 0 .406-.216.57-.433.652-.368.139-.848.235-1.574.434-.9.244-1.169.791-1.169 1.338 0 1.055.974 1.549 1.926 1.549 1.103 0 2.03-.583 2.03-1.684h-.927c-.045.68-.503.93-1.134.93-.434 0-.975-.156-.975-.686 0-.37.256-.576.632-.679.082-.022 1.25-.326 1.529-.406A1.403 1.403 0 0 0 3.381-.228c0-1.181-1.052-1.656-2.1-1.656-1.214 0-2.19.576-2.212 1.884z" style="fill:#0073bd;fill-opacity:1;fill-rule:nonzero;stroke:none" transform="matrix(3.82915 0 0 -3.82915 589.457 263.1)"/><path d="M0 0h.924v-4.474h2.682v-.797H0Z" style="fill:#0073bd;fill-opacity:1;fill-rule:nonzero;stroke:none" transform="matrix(3.82915 0 0 -3.82915 628.332 249.645)"/><path d="M0 0h1.609L.822 2.267H.799Zm.32 3.174h.984l2.038-5.272h-.988L1.857-.703H-.256l-.496-1.395h-.951z" style="fill:#0073bd;fill-opacity:1;fill-rule:nonzero;stroke:none" transform="matrix(3.82915 0 0 -3.82915 674.353 261.798)"/><path d="M0 0h.976l2.405-3.882h.021V0h.878v-5.271h-.974L.899-1.396H.878v-3.875H0Z" style="fill:#0073bd;fill-opacity:1;fill-rule:nonzero;stroke:none" transform="matrix(3.82915 0 0 -3.82915 716.627 249.645)"/><path d="M0 0h.906c1.453 0 1.761.826 1.761 1.885 0 1.054-.308 1.881-1.761 1.881H0Zm-.924 4.519h2.19c1.628 0 2.325-1.181 2.325-2.634 0-1.457-.697-2.638-2.325-2.638h-2.19z" style="fill:#0073bd;fill-opacity:1;fill-rule:nonzero;stroke:none" transform="matrix(3.82915 0 0 -3.82915 769.431 266.947)"/><path d="m0 0 .006.252C-.166.763-.528.901-.893 1.29l-1.201.028c-.006-.255-.276.005-.282-.248-.276.007-.694-.107-.897-.479l-.198.004c-.211-.376-.51-.624-.913-.615-.508-.619-1.023-1.239-1.529-1.862-.006-.253-.113-.507-.312-.63-.329-1.129-.554-2.396-1.081-3.522-.009-.382-.219-.888-.133-1.27-.096.002-.194.005-.194-.122.083-.51-.221-.756-.422-1.004-.204.006-.397.01-.507-.239l-.007-.256c-.496.013-1.039.41-1.417.926l-.651.016c.007.255-.123.256-.257.387-.517.014-1.666-.083-2.183.182.011.379-.513.266-.637.647-.114.389-.107.766-.364 1.156.006.12.009.251.142.378-.25.386-.492 1.027-.096 1.395-.115.513.03 1.14-.215 1.659.263.245.144.626.15.882-.243.512-.23 1.146-.346 1.784-.507.649-.351 1.405-.731 2.054l.021.754c-.266.007.007.386-.256.393-.11.764.305 1.641.324 2.404l.407.372.005.25c.126-.003.259-.006.255-.132.271.372.663.614.939.993.254-.137.39.114.52.11.261-.005.012.382.271.375.261-.007.527.116.66.235.266.121 1.143-.153 1.413.092l.12-.128c.14.121.273.25.531.243-.004-.131-.008-.257.122-.259.146.376.718.616 1.057.48.109-.254.055-.443.351-.561.08-.808.063-1.493.442-2.193-.098.001-.102-.113-.104-.225.089-.346.274-.692.266-1.039.289-.46.368-1.152.757-1.507-.104-.111.191-.235.09-.348.189-.229.291-.348.484-.582.194-.005.2.112.299.224.115.568.618 1.013.735 1.582l.097-.116c.102.336.407.562.416.906.201.112.307.449.506.56l.006.229c.711.669 1.115 1.765 1.961 2.225.219.476.744.559.963 1.085.309-.009.806.11 1.196.235.253-.141.633-.416.902-.158-.004-.13.126-.132.252-.136l.133.125c.255-.271.649-.016 1.033-.155.762-.688 1.658-.975 2.552-1.534.26-.005-.01-.398.252-.405.126-.002.253-.004.378-.143-.011-.4-.145-.664.234-.94l-.129-.13c-.002-.132.12-.136.255-.139.105-.803.481-1.476.587-2.285.132-.137.132-.137.252-.271-.012-.403.112-.802.234-1.076.117-.532-.344-.968-.112-1.481-.001-.125-.006-.249-.13-.38.106-.635-.027-1.012-.165-1.643.122-.002.12-.132.114-.259-.257-.496-.27-1.005-.285-1.513-.126-.382-.385-.752-.514-1.131l.118-.127c-.252-.249-.138-.636-.52-.879-.003-.123-.006-.249.123-.254-.004-.26-.258-.373-.386-.501-.126-.252-.63-1.239-.928-1.421l.088-.154c-.227-.318-.782-.443-1.222-.475-.33-.023-.949.339-1.131.457-.131.303.005.533-.17.918l-.186.005.006.254c.004.125-.086.128-.179.132-.083.38-.255.765-.16 1.144.003.129-.085.131-.182.135.104.248-.172.51-.166.765.19.245.016.636.123 1.011-.264.644-.153 1.402-.414 2.043C.35-.897.182-.386 0 0" style="fill:#f08300;fill-opacity:1;fill-rule:nonzero;stroke:none" transform="matrix(3.82915 0 0 -3.82915 338.042 172.598)"/><path d="M0 0c.205.478-.174.819-.236 1.409-.266.105-.355.49-.602.415-.246.28-.288.319-.264.494-.527.22-.459.321-.988.561-.029-.173-.054-.354-.186-.29-.392.178-.587-.108-.976.069-.029-.178-.059-.358-.191-.291-.264.117-.422 0-.584-.115-.129.06-.262.121-.234.292l-.157-.112-.106.233c-.162-.113-.289-.058-.422.005-.158-.115-.245-.648-.48-.349-.75-1.175-1.603-2.107-2.223-3.34a20.957 20.957 0 0 0-.085-.53c-.823-.764-.811-2.471-1.404-3.524.21-.478-.008-.94.068-1.357-.159-.117-.159-.117-.317-.239.121-1.002-.345-1.477-.402-2.415.088-.237.088-.237.185-.483-.035-.174-.081-.346-.203-.28l.094-.241-.168-.104.092-.244c-.127.068-.17-.102-.203-.277.186-.476-.168-.714.127-1.277-.17-.099-.213-.273-.254-.441.295-.559-.104-.695-.008-1.353l-.178-.091.076-.242.178.081c.123-.078.074-.239.019-.409-.21-.233-.485-.387-.434-.803.131.34.241.71.01-1.822.055-.244.055-.244.115-.483-.174-.075-.223-.229-.28-.385.115-.477.117-.872.231-1.353-.057-.157-.277-.388-.11-.711l-.166-.072c0-.369-.044-.865-.05-1.246.056.057.173.096.125-.001.16-.577.365-1.216-.034-1.693-.02-.621.202-.919.165-1.54-.264-.179.148-.733-.017-1.011-.153-.275.181-.326-.085-.491l-.183-.027c.097-.108.097-.108.195-.21-.071-.38-.071-.38.037-.724-.084-.13-.174-.262-.075-.372.071-.357.038-.653.064-1.124-.189-.032.037-.396-.059-.296.017-.235.026-.481-.146-.748.1-.1.198-.207.114-.345l-.13-.156c.004-.16.022-.175.123-.385-.088-1.941.56-3.105.333-5.015.083-.347.17-.702.254-1.047.09-.351-.289-.613-.009-.71.091.123.14-.415.227-.528-.009-.473.626-.845.815-1.06.094.13.178-.029.369-.007l.006-.237c.184.021.951-.02 1.051-.125.184.021.11.364.205.26l.141.071.021.017c.088-.017.158-.072.242-.098l.092-.102c.078.01.124.034.149.073a.631.631 0 0 0 .003-.221c.34.105.317.194.649.284.013.138.043.162.223.341.131-.092.239.188.407.231.124.442.393.649.344 1.046.014.137.1.165.182.185-.031.536.191 1.137.072 1.654-.004.812.209 2.91.024 2.668-.018.673.114 1.188.021 1.815.008.131-.164.253-.074.407.025.268.13.559-.015.653.193.441.044 1.166.302 1.644.005.138.014.266-.064.243.181.583-.098.936.008 1.495-.076-.027-.157-.053-.149.076.085.161.182.327.262.491-.076-.029-.073.097-.071.229.078.031.081.17.084.297l-.013.002c.06.116.112.201.015.28l-.058-.02c.066.153.06.276.133.43-.002.041-.01.06-.026.074.055.122.084.245.029.364.07.151.137.297.209.447-.189.566-.111 1.141-.078 1.698l.123.06c-.064.047-.139.306-.053.246.053.154.053.154.096.316-.181.315-.037 1.475.065 1.795-.102-.32.553.602.266.576-.169.861.345 1.753.455 2.635.285.023-.131.444.075.698.12-.068.235-.129.28.025-.07.228-.01.385-.09.618.034.159.074.327.188.268.039.154.079.33-.041.396.041.159.076.321.193.259-.082.228-.189.465-.277.69.03.166.156.106.274.049.007.728.59 1.078.472 1.861.123-.054.149.108.185.278-.268.677.216 1.529.039 2.137.266.074.191.466.234.805-.1.222.229.319.255.484.36.75.305 1.43.557 2.259.23-.36.56 2.312.835 3.318.362.607.19 1.421.415 2.076C.107-.234-.023-.176 0 0m-10.447-15.361c-.01.041-.013.076-.019.113a1.704 1.704 0 0 0-.064-.149zm-.083-.036-.091-.04c.024-.057.056-.026.091.04m-.187-6.016.001.093c-.025-.032-.039-.066-.001-.093m6.576-.639-.043-.026c.014-.011.032-.01.043.026" style="fill:#009f74;fill-opacity:1;fill-rule:nonzero;stroke:none" transform="matrix(3.82915 0 0 -3.82915 411.533 56.656)"/><path d="m0 0 .003-.379c.63-.756.386-1.898.765-2.784-.248-.263-.12-.638-.244-.893.125-.127.125-.127.255-.253C.53-4.945.912-5.577.79-6.215l-.249-.256c-.003-.124.006-.253.127-.251l-.121-.13.121-.126-.121-.128c.121.002.122-.122.122-.253-.245-.254.13-.632-.241-.89.127-.126.127-.252.123-.382-.366-.258-.209-.822-.487-1.184l.116-.133-.135-.118-.115.134c-.125.008-.134-.12-.143-.246.106-.263.338-.531.072-.767l.116-.134c-.392-.23-.534-.534-.672-.893-.124-.114-.124-.114-.25-.227.109-.131.099-.248.089-.37-.249-.231-.386-.464-.63-.692-.014-.122.091-.372-.153-.481l.108-.126c-.139-.236-.273-.59-.406-.825.115-.008.103-.125.091-.251-.362-.219-.781-.45-.699-.941-.258-.349-.555-.441-.817-.792.099-.248-.436-.3-.454-.54-.02-.243-.36-.098-.26-.347l.108-.129-.23.012c-.136-.234-.136-.234-.372-.341-.01-.119-.018-.243-.135-.236-.221-.136-.34-.311-.587-.536.108-.13-.404-.326-.292-.345-.139-.1-.275-.2-.316-.438-.117.018-.231.038-.255-.08l-.005-.157c-.089-.074-.111-.068-.283-.087-.999-.941-2.356-1.198-3.36-2.131-.252-.086-.501-.165-.752-.246-.256-.081-.207-.454-.413-.297.024.119-.317-.07-.428-.052-.277-.198-.64.013-.875.053.023.119-.112.108-.209.247l-.137-.101c-.09.138-.33.412-.444.434-.089.138.147.234.036.255l.133.099c.026.119-.163.171-.278.19-.185.279.239.033.17.292l-.446.093c-.088.25-.308.284-.377.539.045.238.548.173.593.411.23-.039.168.01.419.094l-.063.177c.251.084.233.297.348.278-.019-.122.087.004.202-.012.113-.022.226-.038.252.078.021.12.041.242.181.34.114-.024.114-.024.229-.041.547.402.199.134.769.653.018.118.018.118.042.237.136.1.177.338.433.42-.021-.122-.051-.238.068-.258.392.183.184.337.114.594.138.101.138.101.275.196-.026-.119.192-.048.074-.033-.023-.115.15.274.264.253.326.413.067-.09.571.681.096.082.324.144.347.196-.026.017.277.094.186.229-.005.095.044.132-.208.047.16.22.599.528.642.769.325-.177.102.395.334.359-.137-.101-.227.146-.235.023l.383-.035c.274.199-.334.259-.081.49.002.122-.021.195-.136.201.007.122-.014.222.106.217l.103-.128c.126.11-.057.545.185.652.012.12.015.243.027.361.362.221.204.197.346.555l-.105.124c-.008-.117.26.085.143.095.009.123.009.123.021.245.236.104.476.888.49 1.131-.014-.243-.216.582.006.447.381.467.218 1.163.328 1.773-.234.12.212.242.097.486-.114 0-.231-.005-.234.118.118.122.118.122.229.25 0 .119 0 .24-.114.238 0 .121.003.245.114.245-.002.125-.001.245-.117.243.115.126.115.126.23.249-.004.119-.115.119-.23.113.116.493-.346.909-.119 1.398-.112-.003-.114.117-.114.242.343.37-.027.902.198 1.27-.229.118-.119.363-.119.608.117.122-.17.279-.169.397-.238.608-.113 1.049-.241 1.684-.247-.179-.23 1.727-.362 2.486-.254.507-.006 1.016-.137 1.522.122.002.25.006.25.129-.128.381.246.515.367.898.252-.001.499.13.752-.12.25.127.123.381.125.504.495.01.871.015 1.37.019.003-.128.001-.255.131-.252.369.003.502-.246.868-.244.004-.13.002-.258.129-.251.248.001.374-.126.502-.25.121 0 .246 0 .246.125l.128-.122.124.127c.125-.125.247-.124.372-.12.128-.125.128-.508.38-.378C-1.01 1.896-.383 1.014 0 0" style="fill:#0073bd;fill-opacity:1;fill-rule:nonzero;stroke:none" transform="matrix(3.82915 0 0 -3.82915 699.504 153.94)"/><path d="m0 0-.004-.249c.149-.508.474-.644.801-1.03l1.078-.03c.004.252.247-.008.253.245a.874.874 0 0 1 .807.475l.178-.005c.189.373.456.619.817.609.455.615.916 1.231 1.373 1.845.007.252.103.503.282.623.294 1.123.498 2.382.97 3.497.01.379.198.882.122 1.26.086-.002.176-.004.177.12-.075.507.196.753.377.997.183-.006.358-.01.455.238l.005.253c.446-.015.934-.409 1.271-.921l.584-.016c-.006-.252.11-.256.231-.387.463-.012 1.495.084 1.956-.18-.009-.377.461-.263.572-.644.101-.386.094-.76.324-1.148-.003-.12-.007-.249-.128-.375.226-.384.441-1.019.086-1.385.102-.507-.029-1.132.192-1.646-.238-.244-.131-.622-.138-.875.22-.509.205-1.139.31-1.773.451-.644.313-1.395.652-2.037l-.018-.75c.235-.006-.011-.382.228-.389.098-.758-.278-1.629-.292-2.387a42.388 42.388 0 0 1-.365-.368l-.008-.249c-.11.004-.229.006-.226.134-.243-.371-.597-.611-.843-.987-.23.138-.351-.112-.471-.108-.23.006-.007-.378-.241-.371a.87.87 0 0 1-.591-.234c-.239-.121-1.024.153-1.267-.091l-.108.131c-.127-.123-.246-.25-.477-.242.004.13.006.255-.11.259-.128-.374-.645-.614-.949-.477-.095.251-.048.438-.311.558-.072.802-.056 1.483-.394 2.178.089-.002.09.109.093.22-.08.345-.248.688-.237 1.033-.258.459-.329 1.144-.677 1.497.093.11-.171.23-.079.345-.17.229-.264.345-.436.58-.176.006-.178-.112-.268-.221-.105-.567-.557-1.008-.66-1.571l-.086.114c-.093-.334-.369-.556-.375-.899-.181-.108-.279-.444-.456-.555l-.005-.228c-.641-.662-1.004-1.749-1.762-2.205-.197-.47-.666-.55-.864-1.076-.277.009-.724-.107-1.073-.23-.226.141-.568.414-.808.157.003.128-.114.132-.226.135l-.12-.125c-.228.27-.583.016-.927.156-.678.682-1.483.969-2.288 1.525-.232.006.013.395-.222.404-.114.002-.229.005-.339.142.009.398.13.658-.208.932l.114.131c.002.13-.108.131-.228.137-.097.796-.431 1.466-.525 2.269-.118.135-.118.135-.225.269.011.399-.098.797-.21 1.067-.104.531.31.96.102 1.473.001.123.006.246.119.373-.095.633.025 1.008.149 1.631-.11.003-.107.131-.103.256.234.494.245 1.001.256 1.506.117.376.347.745.465 1.119l-.107.128c.227.246.125.63.466.871.006.123.007.248-.108.25.007.26.231.372.345.498.116.249.568 1.229.837 1.41l-.081.152c.205.317.703.44 1.097.47.295.024.852-.337 1.015-.454.117-.299-.008-.529.151-.911l.166-.005-.008-.254c-.002-.123.082-.126.163-.128.075-.378.231-.763.142-1.137-.004-.128.076-.131.164-.135-.094-.247.153-.505.145-.761-.169-.241-.012-.629-.111-1.002.238-.638.138-1.391.371-2.027C-.315.894-.164.385 0 0" style="fill:#0073bd;fill-opacity:1;fill-rule:nonzero;stroke:none" transform="matrix(3.82915 0 0 -3.82915 734.737 172.69)"/><path d="M0 0c.186.176.289.573.563.682.089.087.003.156-.08.22.355.045.259.441.622.639-.086.069.004.156.1.247.432-.021.704.597 1.132.575l.017.154c.259.108.677.282 1.025.333l.182.177c.703.094 1.296-.095 1.895-.245.083-.066.165-.132.073-.22-.117-.548-.647-.768-1.103-1.059-.259.04-.278-.267-.533-.226l-.006-.15C3.073.457 1.666-.211.075-.219-.007-.155-.09-.089 0 0m13.261-5.709c-.185.036-.365-.032-.54-.124l-.004.009c-.035.082-.021.142-.103.179-.186.082-.442-.065-.63-.135-.214-.077-.431-.087-.65-.188a.773.773 0 0 1-.215-.15 1.588 1.588 0 0 0-.135-.126c-.037-.033-.072-.046-.093-.099-.065-.004-.112.024-.172.03-.06.006-.088-.019-.147-.019-.027.01-.06.018-.089.027-.03.006-.053-.008-.07-.034a.719.719 0 0 1-.147-.062c-.043-.028-.055-.075-.111-.104-.046-.026-.081-.028-.126-.045-.09-.033-.192-.086-.236-.171l-.031-.009-.074.015c-.155-.087-.375-.045-.568-.235-.34.058-.623-.215-.94-.368l-.063.131c-.574-.195-1.065.072-1.574-.254-.752-.039-1.301.072-2.038.099-.099.039-.207.077-.151.177-.213-.166-.524.184-.74.024-.623.227-.76-.062-1.378.199.168.176-.257.178-.097.352-.608.116-.746.699-1.16 1.023.005.147-.157.275-.069.506-.492.241-.652.516-.634.962-.249.197-.151.576-.309.853l.171.168c.005.15.005.15.012.297.262.25.506.058.758.012.424.121.808-.286 1.231-.161.085.082.482.074.566.154.256.102.479.217.559.154.424-.026.462.294.881.12.084.083.554.085.556.236.596-.006.738.141 1.344.579.423.12.949.21 1.293.541.173.021.453.461.709.417.685.522.797.999 1.408 1.587.004.144.004.144.006.293.266.253.275.549.615.736.02.443.161.481.178.923l.034.284-.163.128c.089.232-.072.509.107.678-.244.337-.307.851-.462 1.273l-.173-.02.006.151c-.17-.02-.17-.02-.337-.037.262.253-.246.194-.155.425-.166.127-.24.345-.578.301-.313.558-1.152.682-1.387 1.321-.175-.168-.242.345-.503.09-.25.049-.479.245-.647.223l-.245.195c-.509-.059-1.02-.188-1.513.2-.162.128-.258-.251-.422-.122l-.162.126c-.846-.096-1.697-.337-2.541-.286-.086-.081-.338-.035-.431-.269-.088-.086-.17-.019-.249.044-.175-.165-.341-.185-.51-.205-.086-.085-.177-.17-.097-.233-.086-.081-.43-.2-.513-.137-.431-.27-.779-.603-1.202-.577-.694-.67-1.199-.857-2.002-1.558a17.361 17.361 0 0 0-1.297-1.401c.071-.378-.24-.119-.341-.515.087-.067-.119-.181-.21-.269-.095-.242.046-.583-.222-.688-.096-.09-.029-.275.058-.342-.1-.25-.511-.274-.429-.493-.094-.091.253-.238-.014-.343l-.248-.496s.064-.444-.023-.666c-.089-.223-.143-.544-.088-.674.079-.188.127-.412.127-.412l-.139-.304-.028-.451c.167-.288.396-.154.27-.617.087-.069.175-.137.086-.223l.174.018c-.097-.242-.014-.462-.02-.619a.93.93 0 0 0 .356-.795c.086-.067-.113-.275-.017-.185.171-.288.144-.632.497-.592.085-.068.17-.135.082-.219l.172.019c.267-.046.057-.314.321-.356.088-.073-.005-.162-.096-.248l.169-.134c-.011-.309.962-.652.95-.963.822-.906 2.672-1.893 2.672-1.893.18.165.55-.289.682-.094l.032-.145c.321-.293 1.058.014 1.313-.374l.327.087c.256-.004.284-.537.673-.35-.068-.093.034-.146.127-.196.071.098.071.098.133.192.422.04.771-.176 1.17-.007.091-.06.276-.169.369-.226.161.037.161.037.328.073.601-.096 1.335.147 2.02.033.162.069.372-.004.582.162.104-.037.213-.071.32-.108.157.065.315.129.47.195.267-.204.827.139 1.154.056l.042.084c.06.006.123.017.191.036l.034-.072.033.091.022.006c.043.013.097.013.137.036.032.02.052.074.076.084.085.036.128-.049.227.018.034.022.034.059.076.079.058.029.058.005.112.009.067.004.147-.009.219.032l.073.073c.031.017.06.02.085.001.036.01.065.024.098.037.066.023.176.04.23.088.04.034.036.081.055.12.041.007.08.015.123.026.264.07.334.202.564.356.343.229.746.359 1.063.602.096.072.16.175.28.234.169.083.294.016.437.078.26.114.289.24.377.471.221.56.274 1.002.136 1.56" style="fill:#0073bd;fill-opacity:1;fill-rule:nonzero;stroke:none" transform="matrix(3.82915 0 0 -3.82915 614.732 168.392)"/><path d="m0 0-.033.043C-.037.011-.021 0 0 0m9.022 11.882.076.279c.066.271.095.466.101.758.008.358-.107.41-.271.723-.133.25-.348.806.148.831-.094.374-.35.579-.346.989 0 .086-.042.312-.011.386a.248.248 0 0 0 .209.147c.093.131.12.45.007.582-.159.187-.252.104-.298.285.021.217-.014.512-.012.631.004.379.013.76.012 1.138 0 .249.086.299.134.501.036.144-.003.363-.003.514.003.495.016.872-.143 1.342-.101.297.041.868-.326.955-.192.045-.427-.033-.623-.007-.214.03-.174.074-.334.168-.201.117-.37.043-.596.125-.154.052-.236.246-.424.243-.207-.001-.391-.135-.62-.134-.194.002-.253-.062-.417-.093-.515-.1-1.046.02-1.564-.011-.187-.013-.309-.097-.488-.13-.371.002-.748.004-1.122.015-.099.002-.263.048-.353-.019a3.348 3.348 0 0 0-.051-.203c-.096-.122-.241-.199-.347-.306-.302-.306-.229-.644-.38-1.011-.06-.146-.217-.339-.23-.471-.013-.145.17-.42.191-.544.061-.315.073-.658.066-1.009H.97a2.261 2.261 0 0 0-.021-.672c-.034.047-.072.082-.095.123l.046-.489c-.027-.251-.03-.504.069-.76.063-.902-.147-3.141.142-2.946.077-.757-.105-1.267.093-1.997-.014-.141.284-.34.146-.477-.024-.289-.173-.569.067-.724-.284-.417.068-1.067-.343-1.48-.014-.148-.027-.289.102-.294-.303-.559.16-1.078-.017-1.65.125-.002.252-.006.244-.149-.142-.138-.044-.637-.173-.784.127.004.12-.139.12-.286-.123.001-.129-.146-.135-.29.129.003.121-.139.117-.281-.125-.15-.125-.15-.262-.294-.002-.144.125-.14.253-.14.117-.289-.378-.431-.128-.572-.14-.721.007-1.544-.425-2.092-.243.161-.051-.815-.027-.528C.719 1.487.426.563.16.441.145.296.145.296.128.154.227.146.068 0 0 0l.079-.107C-.092-.529.083-.5-.326-.758c-.017-.139-.026-.286-.043-.425-.266-.126-.084-.64-.226-.77l-.11.151c-.131.007-.113-.112-.125-.255.127-.006.153-.093.142-.238-.289-.269.377-.346.071-.578l-.34.032a.17.17 0 0 1 .092-.042c-.115-.118 0-.575-.296-.398-.058-.283-.553-.645-.737-.903.285.098.226.053.229-.059.095-.16-.24-.249-.212-.267-.033-.064-.283-.133-.389-.23-.585-.909-.281-.316-.654-.802-.092.018-.229-.229-.281-.301.071-.025-.13-.086-.102.043-.155-.114-.155-.114-.31-.231.067-.303.289-.485-.146-.7-.131.023-.096.162-.065.305-.283-.096-.338-.377-.493-.495-.029-.14-.029-.14-.054-.279-.646-.611-.258-.296-.87-.765-.128.019-.128.019-.249.048-.156-.116-.186-.258-.213-.4-.033-.138-.155-.119-.281-.093-.125.021-.244-.125-.221.015-.123.025-.115-.226-.394-.324l.064-.211c-.281-.099-.213-.154-.467-.108-.057-.281-.605-.203-.662-.482.063-.302.305-.345.389-.64l.488-.107c.066-.309-.392-.017-.196-.346.124-.025.327-.085.297-.224l-.153-.12c.124-.023-.142-.137-.048-.301.123-.023.375-.349.469-.513l.156.119c.1-.167.248-.152.221-.294.259-.048.645-.297.957-.063.121-.021.506.197.473.057.22-.185.18.256.467.348.277.095.552.191.835.287C-2.172-10.22-.674-9.92.459-8.815c.187.022.215.013.312.102l.016.186c.029.138.152.116.281.094.055.278.209.396.364.515-.121.02.449.25.337.403.278.267.417.474.663.632.129-.01.146.137.156.279.264.124.264.124.426.399.126-.007.126-.007.248-.016l-.108.155c-.102.292.264.121.295.408.03.283.621.342.521.635.3.411.634.52.928.931-.07.58.399.851.806 1.107.018.149.034.287-.091.295.155.277.318.697.477.973l-.113.153c.271.124.169.419.187.563.277.268.437.543.719.814.015.143.032.282-.085.436l.284.268c.166.423.334.781.773 1.05l-.122.16c.3.277.057.596-.047.906.013.147.029.298.166.29l.123-.162.15.14-.123.159c.322.425.168 1.092.581 1.393.009.153.017.304-.118.452.416.303.019.751.301 1.049.002.154-.114.408-.247.41l.149.144-.123.156.15.143c-.136.007-.129.159-.117.305l.303.287c.195.742-.162 1.506.178 2.241-.131.153-.131.153-.252.314.16.293.057.741.357 1.032a4.09 4.09 0 0 0-.142.896M.854 18.007l-.021.192c-.025-.093-.011-.146.021-.192m-4.059-23.85-.02.004c-.005-.035.002-.029.02-.004m2.166 3.011.082-.009c-.046.043-.076.086-.082.009" style="fill:#0073bd;fill-opacity:1;fill-rule:nonzero;stroke:none" transform="matrix(3.82915 0 0 -3.82915 550.1 182.334)"/><path d="M0 0c.002.197-.059.302-.08.478-.025.179.002.38 0 .56 0 .167.012.196-.098.338-.117.149-.105.144-.142.299-.051.206-.162.374-.262.56a.726.726 0 0 1-.431.372c-.189.055-.116.012-.272-.036-.093-.027-.334.026-.396-.057-.014.17-.147.38-.253.475-.116.105-.198.08-.322.122-.162.053-.284.211-.466.236-.013-.079.024-.22-.084-.236-.186.162-.255.235-.494.241-.093.002-.226-.028-.316-.007-.202.046-.344.294-.572.254-.234-.039-.109-.146-.271.071-.167.221-.383.284-.611.161-.173-.093-.547-.02-.482-.318l-.081.238c-.119.033-.1-.046-.18-.063-.072-.012-.153.002-.224-.01-.257-.052-.067-.249-.211-.394-.037-.038-.195-.065-.253-.111-.04-.031-.079-.082-.113-.119a1.544 1.544 0 0 1-.169-.191c-.117-.053-.223-.303-.276-.407-.068-.127-.13-.149-.224-.238-.134-.125-.104-.219-.117-.381-.01-.122-.067-.203-.088-.32a.578.578 0 0 1 .004-.156.554.554 0 0 1-.061-.162l-.012-.076c-.037-.048-.076-.093-.089-.165-.024-.126.025-.179.062-.261.006-.131.018-.259.039-.358L-7.48.16c.066-.169-.081-.043.093-.185.092-.077.202-.145.316-.213-.008-.162-.028-.324.008-.479a.903.903 0 0 1 .117-.258c.022-.06.065-.1.122-.125.042-.003.088-.009.131-.013.08-.01.119-.06.115-.145.119-.113.119-.093.285-.098.035 0 .088-.004.151-.008l.07-.071a.485.485 0 0 1 .183-.19c.123-.121.162-.103.326-.142.212-.053.467-.319.691-.17.151-.124.249-.267.357-.43.036-.053.042-.135.105-.173.162-.099.306.076.408-.163.082.022.08.094.148.133.101.063.357.033.477.021.228-.026.412-.269.639-.25.184.015.439.115.611.187.152.066.265.108.42.155.216.067.17.324.338.393.103.044.207-.035.328.046.079.054.092.097.136.181.102.196.168.316.343.438.181.128.15.289.22.462.035.078.037.15.115.201.153.102.194-.036.231.176C.035-.387-.002-.176 0 0" style="fill:#f08300;fill-opacity:1;fill-rule:nonzero;stroke:none" transform="matrix(3.82915 0 0 -3.82915 693.963 114.432)"/><g clip-path="url(#a)" transform="matrix(3.82915 0 0 -3.82915 -405.38 1620.078)"><path d="M145.813 422.922c-.174-.035-.801-.14-.801-.14l-4.381-.853-1.599-.478-1.11-.343-4.209-.954s-.659-.41-.904-.41c-.243 0-.764.068-.87 0-.103-.069-.135-.238-.312-.375-.173-.136-.484-.343-.484-.343l-.801-.169-2.296-1.332-2.015-1.604-.662-.786-1.667-1.776-.973-.752s-.105-.204-.244-.272c-.138-.068-.662-.342-.662-.342l-.311-.582s-.314 0-.314-.272v-.682l-.068-.412c-1.069-1.441-2.221-2.908-3.041-4.505-.269-.53-.635-1.323-1.078-1.733-.352-.325-.956-.522-1.415-.723-.434-.193-.754-.233-1.074-.586-.187-.203-.213-.537-.342-.677-.221-.241-.499-.265-.739-.47-.151-.127-.32-.471-.464-.64-.361-.417-.778-.788-1.129-1.206-.719-.845-1.679-1.694-2.209-2.639-.848-1.5-1.233-3.212-1.722-4.848l-.451-1.878.142-.478-.209-1.364-.071-.789-.21-.887-.38-1.332-.314-.989-.346-.821s-.139-.683-.175-.886c-.036-.204-.036-.82-.036-.82l.036-.17.21-.24.102-.306.071-.991.521-2.458.623-2.187.595-1.504.52-1.705.348-.785.349-.682.345-.614.209-.583v-.512l.175-.171.103-.683.071-.579.173-.307.138.307.105.034.557-.717.139-.513.729-1.296.766-1.571.762-1.025.386-.373.451-.309.104-.513.66-.546.245-.446.521-.578.486-.548.244-.238c.403-.395.541-.98.872-1.435.161-.219.496-.42.626-.574.474.334 1.02-.569 1.257-.886.357-.488.804-.848 1.237-1.259.402-.386.921-.928 1.382-1.198.497-.289 1.265-.449 1.769-.668.876-.378 1.758-.554 2.624-.978h.94l.346.03.211.038.102-.038.209.103.209.206.346.066.07-.134-.07-.271.314-.071.766.035.207.169.422.272.309.141.384.237.101.24.246.204.38-.173.245.24.139.137.312-.034c.144-.015.455-.361.603-.427.412.443 1.063.66 1.663.523.406-.097.603-.234 1.012-.207.378.024.708.354 1.035.011.134.057.332.081.449.169l-.023.112c.124.023.349-.026.475-.075.009-.205.136-.261.174-.412.453.561.958.715 1.668.68a.81.81 0 0 1 .036-.199c.057.261.15.219.278.371.141-.342.525-.363.854-.243.44.161.303.44.565.666.316.271.511.2.725.127.215-.071.45-.143.845.134-.009-.008.221-.487.246-.542.081.04.161.088.241.133l.07.135.209.24.347.275v-.684l.139-.103.313.067.244.343.174.272.277.171.314.206.068.101.28.17.138.104.382.069.939.068.488.271.035.172.102.615.521.478h.525l.277.34.277.307.348.309.417.104.139-.445.174.308.069.341.487.342.315.17.415.308.523.1-.036.239v.241l.869-.308.41.233c2.45 1.407 5.35 1.639 7.946 2.675.97.385 2.062.339 3.058.628 1.137.331 2.209.847 3.359 1.135 1.12.285 2.162 1.094 3.267 1.507.893.331 2.221.752 2.438 1.812l.069.342.103.102s.138-.102.104 0c-.034.104-.207.478-.207.478v.41l.103.204.104.172-.382.067-.071.205-.207-.034-.139-.376.035-.238.139-.273.07-.615-.209-.24-.035-.274-.21.103-.172.274-.068.241.174.202.066.342v.718l.071.411.036.544.172.138.105.138-.105.168-.241.274-.07.136-.208-.1-.141-.616.035-.614-.071-.753-.173-.716-.277-.41-.243-.307-.171-.139-.143-.201-.276-.139h-.28l-.105.103-.036.203.593.241.07.478v.581l-.242.444-.315-.444-.173-.514-.312-.306-.348-.239-.14-.138-.171.309.103.478s.208.135.241.272c.037.138.175.478.175.478l.381.273.174.276.175.033.244.307-.174.341.14.274.487.205.415.169.381.24.943.512.762.408s.243.208.279.31c.033.103.173.376.173.376l-.104.477.104.272.244.546.347.411v-.306l.277.169.208.377.384.273s.349-.206.174.204c-.174.41-.349.787-.349.787l-.139.236.106.618-.277.34.277.58.138.309.173.375.106.306c.272.8-.261 1.577-.252 2.371-.006.04.398.34.423.51.036.231-.258.485-.23.745.062.547.446.673.163 1.224l-.383 2.525-.836 1.743-.556 2.526s-.45 1.025-.45 1.127c0 .102-.104 1.126-.104 1.126l-.14.649-.242.887-.211.137-.173-.341-.069-.648-.381-.512s-.034 0-.106.237c-.071.24-.172.821-.172.821l-.28.786.071.683.209.305-.14.208-.246.065-.45-.34s-.036-.444-.036-.614c0-.171.036-.718.036-.718l-.451.171h-.14l-.103-.274.52-.784.138-.341-.1-.377v-.341l.001-.376-.109-.579-.38-.207-.278-.135s-.079.157-.164.318c.006-.045.009-.082-.001-.095a3.67 3.67 0 0 1-.122-.222v-.223l.122-.342-.242-.222s-.056-.169-.158-.034a7.538 7.538 0 0 1-.295.343l-.262.084-.348.207-.052.271.383.017.313-.017a.5.5 0 0 0 .174.103c.07.067.276.206.276.206l.072.187.005.002c-.025.051-.042.088-.048.097-.489.958-.954 3.142-.513 4.13-.246-.105-.401-.335-.533-.577-.486.184-1.052 1.141-.339 1.355-.114.378-.438.81-.84.9-.048.009-.125 1.043-.142 1.194l-.243.375-.381.07-.035.305-.138.241h-.14l-.209-.171v-.239h-.243l-.383.135.207.275.105.171s0 .17-.071.273c-.067.101-.344.34-.344.34l-.105.206.07.273.103-.102.276-.239.244-.24v.545c0 .14.176.413 0 .65-.173.239-.278.34-.278.34l-.52.548-.522.444s-.174.206-.174.306c0 .104-.034.276-.034.412 0 .137-.035.308-.035.308l-.173.237.628.102.415.137.313-.068s.311-.139.242.035l-.069.171-.138.238-.523.172-.24.135-.212.138-.208.101-.553-.068-.108-.067-.136-.104-.035.171v.17l-.107.241-.14.103.348.168h.281l.242.241.173.306v.138l.243.272s.034.307-.138.273c-.174-.032-.453-.032-.453-.032l-.485-.14h-.35l-.033.24s.172.238.172.341c0 .104-.104.412-.104.412l-.104.067-.138.476-.138.207-.454-.136-.067.683-.315.307-.416.272-.035.617c-.118.168-.137.16-.22.151a.557.557 0 0 0-.151.003c-.04.005-.071-.057-.112-.119-.04-.064-.091-.128-.165-.117-.103.013-.163.141-.261.166-.399.095-.781.726-1.247.633-.199.922-.692 1.733-1.212 2.512-.368.552-.761 1.436-1.223 1.892l-.416.343-.173.339-.14.411s-.314.919-.383 1.024c-.067.101-.171.377-.311.442-.14.071-.419.411-.419.411l-.242.513-.451.205-.523.306-.625.173-.418-.036s-.139-.137-.067-.307c.067-.172.346-.48.346-.48l.241-.1-.278-.41s-.104-.035-.104-.172c0-.135.177-.444.177-.444.066.206.136.341.136.341l.177.207s.242.033.345.033c.105 0 .381-.103.381-.103v-.238s.108-.341 0-.341c-.101 0-.59-.105-.59-.105s-.173-.204-.276-.204c-.107 0-.312 0-.454.071-.138.067-.484.067-.484.067s-.037.101-.176-.067c-.138-.173-.138-.275-.138-.275l-.105-.102s-.175-.068-.279-.068c-.706-.003-.61 1.032-.744 1.486-.155.525-.598 1.998-1.096 2.268.232.449.322.934.001 1.364-.52-.37-.604.092-1.114.209l-.452.102-.208.101-.313.172-.177-.102-.276-.308-.382-.035h-.174l-.662-.034-.241.307.033.345s.069.169-.068.169c-.142 0-.871-.139-1.043-.169m2.195-28.771c.524-.059.994-.337 1.538-.305.431.026.879-.209 1.22-.514.097-.082.16-.198.259-.272.29-.224.537-.448.8-.719a1.07 1.07 0 0 1 .363-.264c.178-.08.346-.203.523-.284.317-.142.655-.127.958-.334.188-.128.336-.325.518-.462.144-.106.212-.245.375-.277.044-.01.09-.003.137.004.048.007.097.016.141.006.102-.026.224-.131.319-.188.311-.19.594-.495.842-.779.134-.153.27-.224.414-.358.108-.099.114-.227.18-.353.081-.155.19-.164.279-.301.064-.095.025-.209.105-.296.047-.056.153-.092.21-.147l.163-.209c.07-.103.012-.166.08-.267.08-.114.103-.081.168-.227a.757.757 0 0 0 .069-.315c.017-.342-.036-.448.18-.7.259-.301.334-.666.478-1.039.076-.196.153-.437.164-.655.011-.298.078-.281.203-.515.168-.311.067-.899.066-1.256 0-.095.011-.207.012-.317l-.001-.07a.738.738 0 0 0-.028-.214c-.011-.037-.08-.134-.117-.197-.025-.082-.032-.145-.046-.245-.022-.126-.073-.187-.097-.303-.032-.152.004-.21-.061-.347-.036-.03-.066-.063-.098-.095a.35.35 0 0 1-.016-.193c-.076-.208-.145-.392-.185-.622-.035-.203-.116-.457-.247-.625-.069-.092-.152-.104-.236-.174-.118-.099-.16-.225-.225-.371-.115-.259-.243-.439-.471-.569-.086-.085-.179-.164-.255-.263a2.258 2.258 0 0 1-.299-.489c-.194-.438-.614-.672-1.005-.812-.117-.043-.244-.11-.365-.135a.635.635 0 0 0-.182-.009.592.592 0 0 1-.23-.023 14.137 14.137 0 0 0-.587-.303 6.839 6.839 0 0 0-.72-.268c-.188-.076-.203-.117-.334-.277-.114-.136-.223-.243-.389-.268a2.041 2.041 0 0 1-.338-.069c-.262-.077-.478-.224-.701-.388-.143-.104-.301-.172-.441-.285-.179-.146-.193-.151-.407-.183-.416-.061-.949-.069-1.338-.286-.338-.19-.573-.587-.905-.791-.114-.069-.232-.068-.348-.066-.136.001-.267.003-.383-.102-.106-.1-.197-.266-.299-.373a1.708 1.708 0 0 0-.32-.275c-.244-.172-.511-.325-.686-.561-.058-.076-.098-.173-.172-.231-.195-.154-.444-.15-.644-.309-.163-.131-.374-.195-.526-.333a.56.56 0 0 0-.132-.196 2.108 2.108 0 0 1-.207-.042c-.142-.054-.215-.173-.32-.265-.126-.114-.55-.386-.706-.337a4.404 4.404 0 0 1-.803-.207c-.154-.058-.302-.076-.458-.128-.082-.028-.207-.136-.292-.184-.133-.079-.216-.084-.366-.127-.27-.077-.642-.282-.913-.112-.139.087-.201.187-.341.264-.138.075-.219.08-.387.078-.108-.001-.22.006-.334.012-.252.013-.51.028-.735-.034-.193-.054-.291-.094-.433-.236-.139-.136-.33-.297-.507-.345-.199-.054-.41-.037-.619-.02a2.24 2.24 0 0 1-.504.005c-.197-.029-.317-.113-.519-.109-.279.005-.523-.094-.8-.111-.329-.019-.666.006-.995.006-.298 0-.684-.094-.964-.007-.216.064-.248.331-.409.483-.145.135-.295.122-.445.11-.11-.009-.221-.017-.329.033-.048-.03-.084-.022-.104.028l-.085.151c-.401.3-.824.555-1.267.762-.349.19-.511.241-.692.593-.047.15-.109.289-.192.415-.221.283-.445.499-.619.836-.117.218-.262.344-.374.549a.603.603 0 0 1-.094.196c-.165.259-.452.349-.635.565-.126.148-.197.493-.21.698-.011.172.027.345-.014.515-.065.275-.302.466-.358.738-.07.355.085.62.167.933.048.174.109.338.118.52.009.227.008.326.089.521l.101-.048c.008.135.024.265.06.388.059.213.115.37.114.597-.004.195-.018.405.021.593.053.278.064.546.227.785.173.249.33.497.484.793.028.056.141.186.162.246.032.091.009.18.033.278.045.186.148.41.216.585.029.081.099.376.15.449.052.076.183.09.25.134.23.154.35.439.531.644.113.131.251.186.368.3.108.107.178.287.277.408.119.147.263.258.385.4.157.183.255.465.362.683.113.229.259.437.392.652.216.355.384.599.733.795.263.145.565.262.726.552a4.2 4.2 0 0 0 .343.523c.119.162.201.299.338.443.12.123.266.271.367.413.092.129.046.166.204.215.125.042.146.025.274.1.168.1.333.183.501.285.076.044.148.119.227.159.066.037.203.048.257.099.134.125.134.313.203.474.073.175.134.224.269.333.133.101.118.086.209.262.065.126.138.29.226.397.142.175.291.222.472.279.154.046.333.042.477.131.058.039.124.122.172.153.551.343 1.262.382 1.862.521.177.041.43.043.589.154.123.085.223.237.357.324.148.091.342.154.459.302.097.126.031.205.198.272.083.035.168.018.255.041.066.018.107.071.197.083a.996.996 0 0 0 .164.009c.06 0 .119 0 .179.013.477.092.927.378 1.415.403.052.002.106-.003.159-.007a.638.638 0 0 1 .285.017c.129.05.187.155.324.193.291.079.569-.094.849-.108.509-.024 1.028-.002 1.537-.002.092 0 .201-.012.309-.012.18 0 .358.033.457.213m22.184-5.648-.104.084s-.105.222-.156.409a.844.844 0 0 1-.139.291s-.088.34-.121.443c-.037.101-.02.478-.02.478s.107-.307.141-.377c.033-.066.242-.238.349-.339.102-.106.258-.342.343-.445.087-.102.069-.238.069-.238l-.013-.462zm.243-16.511.035.359s.174.118.223.136c.055.017.229.205.229.205l.243.204.433.086.49.46v-.049s-.122-.243-.139-.309a1.522 1.522 0 0 1-.054-.291c0-.066-.244-.171-.244-.171s-.175-.252-.188-.306c-.02-.051-.02-.051-.02-.103 0-.05-.346-.086-.434-.102-.087-.017-.28-.155-.28-.155l-.346-.187zm-1.409.188c.106.118.227.204.227.204l.297.019-.124-.532-.123-.169.089-.274-.347-.325s-.278-.323-.348-.342a4.901 4.901 0 0 1-.33-.118l-.278-.377-.034-.288-.157-.598s-.175.254-.14.357c.034.104.103.291.103.43 0 .134-.05.422-.069.508-.017.086-.086.481-.086.481l.103.254s.28.189.331.24c.051.052.139.103.173.172.037.066.09.17.09.17l.086.204.106.138h.172l.21-.121s-.028-.08-.005-.08c.009 0 .025.012.054.047m-3.286-1.844.472.206.329.152c.07.035.485.103.485.103l.279.238.158-.308-.244-.254s-.21-.036-.259-.036c-.054 0-.3-.085-.349-.101-.051-.017-.261-.204-.261-.204zm.942-1.467-.036.202.226.361-.018.153-.122.172h.244l.193.152.153.17.141.171.051-.187v-.222l-.104-.207-.105-.133-.12-.242v-.237c0-.086-.193-.17-.225-.224-.037-.051-.212-.136-.212-.136z" style="fill:url(#b);stroke:none"/></g><g clip-path="url(#c)" transform="matrix(3.82915 0 0 -3.82915 -405.38 1620.078)"><path d="m170.649 391.611.135-.265c-.018.118-.072.296-.072.296z" style="fill:url(#d);stroke:none"/></g><g clip-path="url(#e)" transform="matrix(3.82915 0 0 -3.82915 -405.38 1620.078)"><path d="M0 0c-.184.437-.107.814-.152 1.223-.054.407-.586.381-.512.76-.127.099-.31.177-.516.241-.086.199-.17.411-.272.553-.19.264-.514.295-.739.497-.186.172-.228.386-.46.547a1.55 1.55 0 0 0-.369.087c-.134.047-.318.11-.46.157a.526.526 0 0 0-.375.04c-.475.247-.649 1.251-1.242.536-.181-.22-.152-.566-.249-.79l-.002-.004-.056.012c-.242-.213-.582-.413-.59-.94-.026-.126-.12-.106-.215-.087.02-.398-.276-.874-.354-1.256C-7.275.534-7.719-.703-8.239-1.787c-.218-.088-.366-.323-.419-.58-.604-.538-1.217-1.075-1.825-1.613-.39.079-.729-.119-1.001-.465l-.193.041c-.266-.341-.693-.385-.966-.33-.05-.255-.267.053-.318-.201l-1.172.234c-.289.451-.621.651-.699 1.194l.05.252c-.109.421-.184.964-.083 1.471-.145.69.099 1.432-.047 2.125.17.361.07.782.299.996.05.255-.176.563-.03.798-.095.02-.179.038-.156.167.164.364.061.781.047 1.179-.09.019-.18.036-.152.162l.049.255-.182.037c-.103.417.071.625-.002.952-.158.148-.703.62-1.031.65-.434.044-1.002.014-1.28-.268l.06-.17c-.325-.135-.991-1.041-1.159-1.272-.151-.107-.416-.178-.468-.439.124-.027.101-.152.077-.277-.42-.179-.374-.587-.664-.797l.092-.147c-.192-.358-.511-.688-.703-1.049-.102-.507-.205-1.017-.547-1.477-.024-.127-.051-.255.07-.28-.249-.608-.443-.966-.45-1.624-.147-.11-.175-.235-.196-.359.136-.557-.39-.916-.37-1.471.07-.296.122-.72.042-1.124.093-.155.093-.155.199-.315-.041-.829.207-1.573.173-2.399.128-.025.251-.05.223-.182l-.148-.109c.322-.342.145-.584.064-.987.1-.157.223-.183.348-.206.254-.051-.08-.399.173-.452.779-.714 1.606-1.156 2.231-1.976.35-.206.785-.016.985-.333l.153.105c.121-.026.249-.051.224-.18.306.213.632-.126.855-.312.404.06.913.094 1.213.033.31.492.836.486 1.137.926.908.32 1.496 1.355 2.312 1.907l.043.231c.215.077.381.398.598.475.07.347.407.522.566.843l.076-.134c.213.552.786.913.996 1.469.121.095.144.211.334.173l.178-.324a3.9 3.9 0 0 1 .063-.992c-.02-.167.283-.4.131-.563-.039-.344-.206-.682.039-.859-.317-.502.025-1.268-.428-1.768-.021-.173-.039-.342.093-.343-.34-.671.122-1.281-.089-1.963.131 0 .262-.004.248-.175-.154-.164-.154-.164-.305-.333.133-.002.112-.169.096-.346-.129.008-.151-.165-.17-.338.132-.001.113-.172.094-.339-.147-.173-.147-.173-.305-.337-.014-.171.119-.172.252-.177.092-.349-.44-.495-.19-.673-.222-.851-.152-1.836-.656-2.466-.236.202-.134-.964-.082-.628-.052-.336-.451-1.423-.74-1.557-.034-.169-.034-.169-.063-.339.102-.015-.077-.177-.15-.176l.073-.129c-.221-.494-.036-.465-.49-.759-.03-.163-.054-.334-.087-.501-.292-.136-.152-.754-.312-.903l-.102.18c-.135.02-.129-.124-.156-.293.131-.015.147-.119.125-.289-.329-.308.362-.428.014-.69l-.348.055c.024-.029.051-.052.09-.058-.131-.133-.057-.683-.349-.457-.09-.334-.642-.741-.858-1.039.303.102.242.054.229-.08.085-.196-.274-.285-.246-.307-.04-.075-.308-.148-.431-.258-.7-1.051-.323-.363-.765-.922-.094.026-.26-.261-.322-.345.074-.035-.143-.096-.1.054-.174-.127-.174-.127-.348-.257.039-.361.254-.591-.221-.826-.134.035-.085.195-.04.363-.306-.099-.392-.428-.562-.562-.046-.167-.046-.167-.087-.329-.738-.695-.297-.34-.984-.872-.133.031-.133.031-.256.071-.178-.133-.223-.303-.263-.467-.048-.162-.175-.133-.304-.095-.128.029-.269-.141-.228.025-.125.037-.145-.263-.445-.367l.047-.254c-.304-.105-.239-.172-.499-.106-.087-.33-.653-.212-.744-.541.041-.363.287-.423.346-.777l.499-.153c.039-.366-.409 0-.241-.4.129-.035.334-.116.289-.28l-.17-.136c.127-.031-.161-.156-.08-.353.125-.034.355-.434.436-.631l.175.133c.087-.2.246-.192.2-.358.263-.069.646-.382.995-.121.125-.027.546.213.502.049.209-.234.213.293.52.392.301.098.596.2.9.302 1.299 1.253 2.897 1.541 4.192 2.798.201.019.224.01.338.108l.033.221c.047.164.174.13.304.101.086.328.257.459.431.593-.125.028.491.277.392.464.319.302.482.542.758.72.133-.017.162.155.191.324.287.135.287.135.484.454.129-.016.129-.016.26-.03l-.104.19c-.074.351.294.131.353.471.06.337.683.379.609.73.353.477.71.588 1.063 1.065-.016.691.499.993.95 1.276.035.177.067.341-.064.356.189.325.402.813.597 1.135l-.103.184c.296.136.219.492.252.664.314.305.51.622.832.933.031.17.059.334-.045.52.164.155.164.155.321.307.216.495.429.913.915 1.211l-.11.195c.341.317.117.706.04 1.078.031.175.063.355.201.337l.114-.196.17.157-.112.198c.378.487.285 1.289.75 1.626.023.181.045.361-.082.542.467.341.096.891.421 1.233.021.183.034.357-.104.362l.161.172-.119.183.159.174c-.139.005-.125.186-.105.359l.328.346c.24.887-.098 1.789.288 2.666-.019.028-.039.052-.05.072.083.25.145.499.154.745-.236.047.021.332-.134.417a.924.924 0 0 0 .205.369l-.167.066.068.341c-.257.718.028 1.453-.355 2.19-.004.661.123 1.299-.025 1.856.05.257.002.66.302.864-.15.559.106 1.169.081 1.704.453.301.326.987.149 1.42.153.104.182.235.206.356m-10.795-21.336-.028.052c-.007-.038.006-.05.028-.052m-1.369-3.316.086-.013c-.045.051-.07.104-.086.013m-2.566-3.479-.018.008c-.012-.043-.003-.038.018-.008" style="fill:#898989;fill-opacity:1;fill-rule:nonzero;stroke:none" transform="translate(232.517 380.217)"/></g></svg>