<?xml version="1.0" encoding="utf-8"?>
<!-- Generator: Adobe Illustrator 24.0.1, SVG Export Plug-In . SVG Version: 6.00 Build 0)  -->
<svg version="1.1" id="Layer_1" xmlns="http://www.w3.org/2000/svg" xmlns:xlink="http://www.w3.org/1999/xlink" x="0px" y="0px"
	 viewBox="0 0 159.5 159.5" style="enable-background:new 0 0 159.5 159.5;" xml:space="preserve">
<style type="text/css">
	.st0{fill:#F7931E;}
	.st1{fill:#39B54A;}
	.st2{fill:#D75A24;}
</style>
<title>Asset 1</title>
<g>
	<path class="st0" d="M29.2,67.5c-9.5,1.9-17.7,6.4-23.3,14.4c-6.2,8.9-6.1,20.7-0.7,29.9c8.6,14.8,29.8,17.9,45.4,17.1
		c8.9-0.5,18.7-2.7,25-9.6c8.1-8.9,10.6-21.2,5-32.2c-3.8-7.5-11.8-12.2-19.3-15.6c-9.9-4.5-19.1-6.1-30.1-4
		c-10.9,2.1-18.4,15.9-15,26.4c3.8,11.7,14.6,17.3,26.4,15c-0.6,0.1-3.8,0.6-4.1-0.2c1.2,0.4,2.4,0.7,3.6,1c-2.9-0.8-0.6-0.3,1,0.6
		c1.1,0.6,2.3,1.2,3.4,1.9c4.8,2.8,2.6,3.2-0.9-9.4c-4.8-5.5-5-9.8-0.7-13.1c0.7-1.4,2-2.4,3.4-3c0.8-0.4,4.7-0.8,3-0.8
		c-1.7-0.1-3.2,0.1-4.8,0.1c-1.4,0-2.7-0.1-4.1-0.2c-1.8-0.1-2.6-0.4-0.3,0c-0.4-0.1-6.7-1.5-6.6-1.6s4.4,2.1,1.4,0.3
		c5.1,2.7,6.8,6.9,5.1,12.6c1.9,4.4,1.2,7.7-2.1,9.9c-0.7,1.3-1.9,2.3-3.3,2.7c-1.3,0.4-1.3,0.5-0.2,0.1c1.4-0.2,2.8-0.7,4.3-1
		c11-2.1,18.4-16,15-26.4c-3.8-11.8-14.6-17.3-26.4-15L29.2,67.5z"/>
	<path class="st1" d="M54.7,69.9c1.9-2.5,4.7-4.2,7.9-4.7c1.9-0.4,3.9-0.5,5.9-0.4c0.9,0,1.9,0.1,2.8,0.2c0.5,0.1,1.1,0.1,1.6,0.2
		c0.2,0,0.3,0,0.5,0.1c-0.1-0.7-0.2-0.9-0.4-0.5c-0.2,0.2-0.4,0.6-0.6,0.9c-0.3,0.3-0.6,0.6-0.9,0.9c-0.6,0.5-1.2,0.9-1.8,1.3
		c-1.5,0.8-3.1,1.4-4.8,1.6c-1.9,0.3-3.8,0.4-5.7,0.3c-1.9,0-3.7-0.3-5.5-0.8l0.7,2.7c1.9-2.1,5.2-2.5,7.8-3.1
		c3.2-0.7,6.4-1.3,9.7-1.7c2-0.2,2.1-3.2,0-3.2c-5.1,0-10.4,0.1-14.8,2.8c-0.8,0.5-1,1.5-0.5,2.3c0.2,0.3,0.5,0.6,0.9,0.7
		c4.6,1.4,9.6,1,14-1c1.6-0.7,0.5-3.5-1.3-2.9c-4.7,1.4-9.6,2.3-14.6,2.5c-2.1,0.1-2.1,3.3,0,3.2c5.2-0.2,10.4-1.1,15.4-2.6l-1.3-3
		c-3.6,1.6-7.7,1.8-11.5,0.6l0.4,2.9c4-2.4,8.7-2.4,13.2-2.4v-3.2c-3.7,0.4-7.3,1.1-10.9,1.9c-3.1,0.7-6.6,1.4-8.8,3.9
		c-0.6,0.6-0.6,1.7,0,2.3c0.2,0.2,0.4,0.3,0.7,0.4c3.5,1.2,7.7,1.2,11.3,0.8c3.6-0.3,6.9-1.7,9.7-4c1.1-1,2.6-2.5,2.6-4.2
		c0-2-1.8-2.5-3.4-2.7c-3.9-0.6-7.8-0.5-11.7,0.3c-3.7,0.8-7,3-9.2,6.1C50.7,69.9,53.5,71.6,54.7,69.9L54.7,69.9z"/>
	<path class="st1" d="M52.7,71.5c0.9,0,1.6-0.7,1.6-1.6c0-0.9-0.7-1.6-1.6-1.6c-0.9,0-1.6,0.7-1.6,1.6
		C51.1,70.8,51.8,71.5,52.7,71.5z"/>
	<path class="st1" d="M54.7,71.2c1.9-4,1.8-8.7-0.5-12.6c-1-1.9-2.3-3.6-3.9-5.2c-0.7-0.8-1.5-1.6-2.4-2.1c-1.1-0.5-2.4-0.2-3.2,0.7
		c-1.4,1.6-1.8,4.3-2,6.3c-0.2,2.3,0.3,4.6,1.3,6.6c0.9,1.7,2.3,3.2,3.9,4.3c1.5,1,4.7,2.4,5.5-0.2c0.2-1.3,0-2.5-0.6-3.7
		c-0.5-1.3-1-2.5-1.5-3.7c-1.1-2.6-2.3-5.2-3.6-7.8c-0.8-1.5-2.9-0.7-3,0.8s-0.1,2.8-0.1,4.2c-0.1,1.3,0,2.6,0.3,3.8
		c0.7,2.1,2.6,3.4,4.4,4.5c1.2,0.7,2.8,0.7,3.3-0.8c0.3-1.3,0.4-2.6,0.1-4c-0.2-1.3-0.4-2.7-0.7-4c-0.2-1.1-0.8-2.2-1.6-3
		c-1.6-1.4-3.8,0.9-2.3,2.3c0.9,0.8,1,2.3,1.2,3.4c0.1,0.7,0.2,1.5,0.3,2.3c0,0.3,0,0.7,0,1c0,0.3,0,0.4,0,0.7s-0.1,0.3,0,0.2
		l1.4-0.8H51l0.8,0.2c-1.4-0.5-3.3-1.5-3.7-3c-0.2-1-0.2-2-0.1-3.1c0-1.3,0-2.6,0.1-3.9l-3,0.8c1.1,2.1,2.1,4.4,3.1,6.6
		c0.5,1.1,0.9,2.1,1.3,3.2c0.2,0.5,0.4,1,0.6,1.5c0.1,0.3,0.2,0.6,0.2,0.9l0.1,0.3c0,0.4,0.1,0.3,0.3-0.3l0.7-0.4h-0.2h0.9
		c-2.6-0.6-4.6-2.5-5.4-5c-0.5-1.5-0.7-3-0.5-4.5c0.1-0.8,0.3-1.6,0.5-2.3c0.1-0.4,0.2-0.7,0.4-1.1c0.1-0.2,0.2-0.3,0.2-0.4
		c0.2-0.2,0-0.2-0.6,0c0,0.1,0.6,0.6,0.8,0.7c0.3,0.3,0.6,0.6,0.8,0.8c0.5,0.6,1.1,1.2,1.6,1.8c0.9,1.1,1.6,2.4,2.2,3.7
		c1.3,2.7,1.3,5.7,0,8.4C50.9,71.5,53.7,73.1,54.7,71.2L54.7,71.2z"/>
	<path class="st1" d="M51.4,72.8c7.4,3.8,16.3,2.9,22.8-2.3c1.8-1.3,3-3.2,3.3-5.4c0.3-2.4-0.9-3.8-3.3-3.8c-2.6,0-5.2,0-7.8,0
		c-2.5-0.1-5-0.1-7.5,0.1c-4.6,0.6-8.4,4-9.6,8.5c-0.2,0.9,0.4,1.7,1.3,1.9c0.8,0.1,1.5-0.3,1.8-1c0.5-1.8,1.5-3.5,3-4.6
		c1.7-1.2,3.8-1.8,5.8-1.6c2.6,0,5.2,0,7.7,0h3.9c0.1,0,1.7,0.1,1.7,0c-0.3-0.6-0.5-0.6-0.4,0c0,0.3,0,0.5-0.1,0.8
		c-0.5,2-2.6,3.4-4.3,4.3c-1.7,1-3.6,1.7-5.5,2.1c-3.9,0.8-7.9,0.2-11.4-1.6C51.1,69.1,49.5,71.9,51.4,72.8L51.4,72.8z"/>
	<path class="st1" d="M48.5,69.8c0.9,0,1.6-0.7,1.6-1.6c0-0.9-0.7-1.6-1.6-1.6c-0.9,0-1.6,0.7-1.6,1.6
		C46.9,69.1,47.6,69.8,48.5,69.8z"/>
	<path class="st1" d="M50.2,70.2c-1.1,0-1.8-1.5-2.2-2.4c-0.8-1.6-1.5-3.3-2.1-5c-0.6-1.6-1.1-3.3-1.5-4.9c-0.3-1.3-0.5-3.2,0.8-4.1
		c1.1-0.8,2.3,0.4,2.9,1.2c1,1.2,1.8,2.5,2.5,3.9c1.7,3,2.7,6.3,2.7,9.8c0,2.1,3.2,2.1,3.2,0c0-3.5-0.9-7-2.5-10.1
		c-0.8-1.6-1.7-3.1-2.7-4.5c-0.8-1.3-2-2.5-3.4-3.2c-3.2-1.5-6.4,0.9-7,4.2c-0.2,1.9,0.1,3.8,0.7,5.6c0.5,1.8,1.2,3.5,1.9,5.2
		c1.2,3,2.7,7.7,6.7,7.8C52.3,73.5,52.3,70.2,50.2,70.2L50.2,70.2z"/>
	<path class="st1" d="M48.8,70.1c-0.3,0-0.7-0.8-0.9-1.1c-0.4-0.5-0.8-1.1-1.1-1.6c-0.8-1.1-1.4-2.2-1.9-3.4
		c-0.4-1.3-0.7-2.7-0.7-4.1c-0.1-1.5-0.1-3,0.1-4.5c0.2-0.8-0.3-1.7-1.1-2c-0.9-0.2-1.7,0.3-2,1.1c-0.2,1.9-0.3,3.8-0.2,5.7
		c0,1.9,0.4,3.8,1.1,5.5c0.7,1.6,1.6,3,2.6,4.4c1.1,1.5,2.1,3.1,4.1,3.2c0.9,0,1.6-0.7,1.6-1.6C50.4,70.8,49.7,70.1,48.8,70.1
		L48.8,70.1z"/>
	<path class="st2" d="M11.1,91.1c0.3,0,0.5-0.2,0.5-0.5S11.4,90,11.1,90c-0.3,0-0.5,0.2-0.5,0.5S10.8,91.1,11.1,91.1z"/>
	<path class="st2" d="M26.6,109.5c0.3,0,0.5-0.2,0.5-0.5c0-0.3-0.2-0.5-0.5-0.5s-0.5,0.2-0.5,0.5C26,109.2,26.3,109.5,26.6,109.5z"
		/>
	<path class="st2" d="M36.2,88.2c0.3,0,0.5-0.2,0.5-0.5c0-0.3-0.2-0.5-0.5-0.5c-0.3,0-0.5,0.2-0.5,0.5C35.7,88,35.9,88.2,36.2,88.2z
		"/>
	<path class="st2" d="M63.3,104.7c0.3,0,0.5-0.2,0.5-0.5c0-0.3-0.2-0.5-0.5-0.5c-0.3,0-0.5,0.2-0.5,0.5
		C62.8,104.4,63,104.7,63.3,104.7z"/>
	<path class="st2" d="M51.7,115.3c0.3,0,0.5-0.2,0.5-0.5c0-0.3-0.2-0.5-0.5-0.5s-0.5,0.2-0.5,0.5C51.2,115.1,51.4,115.3,51.7,115.3z
		"/>
	<path class="st2" d="M41,101.8c0.3,0,0.5-0.2,0.5-0.5c0-0.3-0.2-0.5-0.5-0.5s-0.5,0.2-0.5,0.5C40.5,101.5,40.7,101.8,41,101.8z"/>
	<path class="st2" d="M52.7,89.2c0.3,0,0.5-0.2,0.5-0.5s-0.2-0.5-0.5-0.5s-0.5,0.2-0.5,0.5S52.4,89.2,52.7,89.2z"/>
	<path class="st2" d="M71,97.9c0.3,0,0.5-0.2,0.5-0.5s-0.2-0.5-0.5-0.5c-0.3,0-0.5,0.2-0.5,0.5S70.7,97.9,71,97.9z"/>
	<path class="st2" d="M69.1,116.3c0.3,0,0.5-0.2,0.5-0.5s-0.2-0.5-0.5-0.5s-0.5,0.2-0.5,0.5S68.8,116.3,69.1,116.3z"/>
	<path class="st2" d="M29.5,77.6c0.3,0,0.5-0.2,0.5-0.5s-0.2-0.5-0.5-0.5s-0.5,0.2-0.5,0.5S29.2,77.6,29.5,77.6z"/>
	<path class="st2" d="M21.7,94c0.3,0,0.5-0.2,0.5-0.5c0-0.3-0.2-0.5-0.5-0.5s-0.5,0.2-0.5,0.5C21.1,93.8,21.4,94,21.7,94z"/>
	<path class="st2" d="M14,113.4c0.3,0,0.5-0.2,0.5-0.5c0-0.3-0.2-0.5-0.5-0.5c-0.3,0-0.5,0.2-0.5,0.5
		C13.5,113.1,13.7,113.4,14,113.4z"/>
	<path class="st2" d="M39.1,110.5c0.3,0,0.5-0.2,0.5-0.5c0-0.3-0.2-0.5-0.5-0.5c-0.3,0-0.5,0.2-0.5,0.5
		C38.6,110.2,38.8,110.5,39.1,110.5z"/>
	<path class="st2" d="M50.7,80.5c0.3,0,0.5-0.2,0.5-0.5s-0.2-0.5-0.5-0.5s-0.5,0.2-0.5,0.5S50.4,80.5,50.7,80.5z"/>
	<path class="st2" d="M67.2,95c0.3,0,0.5-0.2,0.5-0.5s-0.2-0.5-0.5-0.5s-0.5,0.2-0.5,0.5S66.9,95,67.2,95z"/>
	<path class="st2" d="M50.7,109.5c0.3,0,0.5-0.2,0.5-0.5c0-0.3-0.2-0.5-0.5-0.5s-0.5,0.2-0.5,0.5C50.2,109.2,50.4,109.5,50.7,109.5z
		"/>
	<path class="st2" d="M39.1,112.4c0.3,0,0.5-0.2,0.5-0.5c0-0.3-0.2-0.5-0.5-0.5c-0.3,0-0.5,0.2-0.5,0.5
		C38.6,112.2,38.8,112.4,39.1,112.4z"/>
	<path class="st2" d="M42,95c0.3,0,0.5-0.2,0.5-0.5s-0.2-0.5-0.5-0.5c-0.3,0-0.5,0.2-0.5,0.5S41.7,95,42,95z"/>
	<path class="st2" d="M37.2,124c0.3,0,0.5-0.2,0.5-0.5c0-0.3-0.2-0.5-0.5-0.5s-0.5,0.2-0.5,0.5C36.7,123.8,36.9,124,37.2,124z"/>
</g>
<g>
	<path class="st0" d="M136.7,77.6c-3,4.5-8.1,7.2-13.5,7.3c-7.2-0.4-12.2-4.1-15-11.2c-1.9-6.7,1.4-14.8,8.6-16.6
		c3.4-0.2,3.9-0.3,1.5-0.3c3.4-0.1,6.7,1.3,9,3.9c5.9,10.5,5.6,18.2-1.1,23.3c-2.9,1.1-3.1,1.3-0.9,0.5c5.9-1.3-3.3-0.5,0.6-0.2
		c-8.6-0.6-17.1-8.7-13.8-19.9c0.6-3.1,2.5-5.7,5.2-7.3c-2.1,1.2-1.8,1.1,0.8-0.3c3-0.1,3.2-0.2,0.7-0.1c6.4,0.2,10.6,3.6,12.8,10.1
		c1.2,7.8-0.9,13.4-6.3,17c-3.2,1.2-3.6,1.4-1.4,0.7c0.9-0.2,1.8-0.4,2.7-0.6c-3.3,0.4-3.7,0.5-1.1,0.2c2.1,0,2.3,0,0.5-0.3
		c-2.6-0.3-5.1-1.7-6.8-3.7c-4.9-14.2-2.7-22.9,6.7-26.2c3.6-0.4,4.2-0.6,2-0.4c-12.6,0.2-22.7,10.4-22.9,23
		c0,11.8,10.5,23.3,22.8,22.3C139,98,150,89.5,149.5,77.1c-0.5-11-9.6-22.7-21.8-21.8h-0.6l18.8,10.8l-0.4-0.6l2.2,16.8l0.1-0.7
		l-10,13l1-0.5l-11,3c6.7-0.4,12.6-1.4,18.3-5c9.8-6.3,14.4-18.1,11.6-29.4c-1.8-7.7-7.7-14.6-14.6-18.3c-8.5-4.6-17.7-4-26.8-2.6
		c-14.6,2.2-28.3,13.6-27.8,29.4c0.6,20.4,20.7,32.3,39.4,28c16.6-3.8,30.7-19.8,26.3-37.5c-4.3-17.2-22.2-23-38-19.8
		c-15.6,3.3-29.7,16.4-27.4,33.4c2.5,18.3,21.6,28.6,38.9,23.9c18.6-5,29.8-26.6,19.7-44c-10-17.2-39-19-48.1,0.4
		c-4.8,10.3-3.3,23.9,7.8,29.8C116.7,90.5,131.6,88.6,136.7,77.6L136.7,77.6z"/>
	<path class="st1" d="M116.2,44.4c-0.5-2.8,0.8-5.6,2.3-7.9c0.8-1,1.8-1.9,3-2.4l2.1-1l1.2-0.6l0.6-0.3c0.3,0,0.4-0.1,0.2-0.2
		l-0.8-0.2c-0.3-0.5-0.4-0.6-0.3-0.3l0.1,0.3c0.1,0.3,0.2,0.5,0.2,0.8c0.1,0.5,0.3,1.1,0.4,1.6c0.2,1,0.3,2,0.4,3.1
		c0.1,1.8,0.1,3.8-1.1,5.3c-2.3,2.8-6.4,3.8-9.8,3.4l1.6,1.6c0.4-3,0.8-6.2,2.5-8.9c1.2-2.2,3.5-3.6,6.1-3.7l-1.6-2.1
		c-0.5,2.4-0.9,4.8-1.5,7.2c-0.2,1-0.5,1.9-1.1,2.8c-0.3,0.4-1,1.2-1.5,1.1l0.8,0.2c-1.1-0.6-0.7-2.6-0.3-3.5
		c0.7-1.7,1.9-3.1,2.7-4.8l-3-0.4c0.6,1.6-0.4,3.1-1.3,4.4c-1.2,1.4-2,3-2.5,4.7c-0.2,0.9,0.4,1.8,1.2,2c0.5,0.1,1,0,1.4-0.4
		c2.7-2.4,5.5-4.6,8.4-6.8l-2.2-2.2c-0.8,1.3-1.4,2.6-1.8,4.1c-0.2,0.9,0.3,1.8,1.2,2c0.8,0.2,1.7-0.3,1.9-1.1
		c0.3-1.2,0.8-2.3,1.5-3.3c0.8-1.3-0.9-3.3-2.2-2.2c-3.1,2.3-6.2,4.7-9.1,7.3l2.7,1.6c0.4-1.9,1.8-3.3,2.8-4.8
		c1.2-1.7,1.6-3.9,1-5.9c-0.5-1.2-2.3-1.8-3-0.4c-1.2,2.3-3,4.4-3.4,7c-0.2,1.2-0.1,2.4,0.3,3.5c0.5,1.2,1.5,2.5,2.9,2.5
		c2.6-0.1,4.4-2.7,5.2-4.8c0.4-1.3,0.7-2.6,1-4l0.9-4.8c0.2-0.9-0.3-1.8-1.2-2c-0.1,0-0.3,0-0.4-0.1c-3.5,0.1-6.7,1.9-8.6,4.9
		c-2.2,3.2-2.8,7.2-3.3,10.9c-0.1,0.9,0.8,1.5,1.6,1.6c3.4,0.4,6.8-0.4,9.6-2.2c1.4-0.9,2.6-2,3.5-3.4c0.8-1.6,1.2-3.5,1.1-5.3
		c0-1.9-0.2-3.7-0.7-5.5c-0.3-1.6-0.7-4-2.8-3.9c-0.9,0.2-1.8,0.6-2.5,1.1l-2.7,1.3c-1.5,0.7-2.8,1.7-3.9,2.9
		c-2.6,3.1-3.8,7.1-3.3,11.1c0.3,0.9,1.2,1.3,2,1.1C115.9,46.1,116.4,45.3,116.2,44.4L116.2,44.4z"/>
	<path class="st2" d="M105.9,67.1c0.3,0,0.5-0.2,0.5-0.5s-0.2-0.5-0.5-0.5c-0.3,0-0.5,0.2-0.5,0.5S105.6,67.1,105.9,67.1z"/>
	<path class="st2" d="M132.3,59.9c0.3,0,0.5-0.2,0.5-0.5c0-0.3-0.2-0.5-0.5-0.5c-0.3,0-0.5,0.2-0.5,0.5
		C131.8,59.6,132,59.9,132.3,59.9z"/>
	<path class="st2" d="M126.1,82.7c0.3,0,0.5-0.2,0.5-0.5s-0.2-0.5-0.5-0.5s-0.5,0.2-0.5,0.5S125.8,82.7,126.1,82.7z"/>
	<path class="st2" d="M118.6,67.4c0.3,0,0.5-0.2,0.5-0.5c0-0.3-0.2-0.5-0.5-0.5c-0.3,0-0.5,0.2-0.5,0.5
		C118.1,67.1,118.3,67.4,118.6,67.4z"/>
	<path class="st2" d="M101.6,84.7c0.3,0,0.5-0.2,0.5-0.5c0-0.3-0.2-0.5-0.5-0.5c-0.3,0-0.5,0.2-0.5,0.5
		C101.1,84.5,101.3,84.7,101.6,84.7z"/>
	<path class="st2" d="M135.9,85.3c0.3,0,0.5-0.2,0.5-0.5c0-0.3-0.2-0.5-0.5-0.5c-0.3,0-0.5,0.2-0.5,0.5
		C135.4,85.1,135.6,85.3,135.9,85.3z"/>
	<path class="st2" d="M153.5,69.7c0.3,0,0.5-0.2,0.5-0.5s-0.2-0.5-0.5-0.5c-0.3,0-0.5,0.2-0.5,0.5S153.2,69.7,153.5,69.7z"/>
	<path class="st2" d="M151.6,61.8c0.3,0,0.5-0.2,0.5-0.5c0-0.3-0.2-0.5-0.5-0.5c-0.3,0-0.5,0.2-0.5,0.5
		C151,61.6,151.3,61.8,151.6,61.8z"/>
	<path class="st2" d="M138.2,69.4c0.3,0,0.5-0.2,0.5-0.5c0-0.3-0.2-0.5-0.5-0.5c-0.3,0-0.5,0.2-0.5,0.5
		C137.7,69.1,137.9,69.4,138.2,69.4z"/>
	<path class="st2" d="M112.7,75.6c0.3,0,0.5-0.2,0.5-0.5c0-0.3-0.2-0.5-0.5-0.5s-0.5,0.2-0.5,0.5C112.2,75.3,112.4,75.6,112.7,75.6z
		"/>
	<path class="st2" d="M115,54.7c0.3,0,0.5-0.2,0.5-0.5c0-0.3-0.2-0.5-0.5-0.5c-0.3,0-0.5,0.2-0.5,0.5
		C114.5,54.4,114.7,54.7,115,54.7z"/>
	<path class="st2" d="M149.3,83.1c0.3,0,0.5-0.2,0.5-0.5s-0.2-0.5-0.5-0.5c-0.3,0-0.5,0.2-0.5,0.5S149,83.1,149.3,83.1z"/>
	<path class="st2" d="M117.6,93.8c0.3,0,0.5-0.2,0.5-0.5s-0.2-0.5-0.5-0.5c-0.3,0-0.5,0.2-0.5,0.5S117.3,93.8,117.6,93.8z"/>
	<path class="st2" d="M130.4,70.7c0.3,0,0.5-0.2,0.5-0.5s-0.2-0.5-0.5-0.5c-0.3,0-0.5,0.2-0.5,0.5S130.1,70.7,130.4,70.7z"/>
	<path class="st2" d="M140.2,75.6c0.3,0,0.5-0.2,0.5-0.5c0-0.3-0.2-0.5-0.5-0.5c-0.3,0-0.5,0.2-0.5,0.5
		C139.6,75.3,139.9,75.6,140.2,75.6z"/>
	<path class="st2" d="M137.5,48.8c0.3,0,0.5-0.2,0.5-0.5c0-0.3-0.2-0.5-0.5-0.5c-0.3,0-0.5,0.2-0.5,0.5
		C137,48.5,137.2,48.8,137.5,48.8z"/>
	<path class="st2" d="M94.8,71c0.3,0,0.5-0.2,0.5-0.5s-0.2-0.5-0.5-0.5s-0.5,0.2-0.5,0.5S94.5,71,94.8,71z"/>
	<path class="st2" d="M102.6,58.2c0.3,0,0.5-0.2,0.5-0.5c0-0.3-0.2-0.5-0.5-0.5c-0.3,0-0.5,0.2-0.5,0.5
		C102.1,58,102.3,58.2,102.6,58.2z"/>
</g>
</svg>
